<svg width="15" height="20" viewBox="0 0 15 20" fill="none" xmlns="http://www.w3.org/2000/svg">
<path d="M7.5 19.9327C7.49078 18.8941 7.26689 17.8686 6.8424 16.9207C6.41792 15.9728 5.802 15.1229 5.03333 14.4243L2.89417 12.4793C2.17908 11.8261 1.60797 11.0309 1.21728 10.1447C0.826579 9.25839 0.624866 8.30042 0.625 7.33185C0.625 3.53435 3.70333 0.416016 7.5 0.416016C11.2967 0.416016 14.375 3.53352 14.375 7.33102C14.375 9.28352 13.5508 11.1643 12.1058 12.4785L9.96583 14.4235C9.19721 15.1221 8.58132 15.972 8.15683 16.9199C7.73235 17.8678 7.50844 18.8933 7.49917 19.9319L7.5 19.9327ZM7.5 19.9327V19.9993V19.9519M7.5 9.58268C6.94747 9.58268 6.41756 9.36319 6.02686 8.97249C5.63616 8.58179 5.41667 8.05188 5.41667 7.49935C5.41667 6.94681 5.63616 6.41691 6.02686 6.02621C6.41756 5.63551 6.94747 5.41602 7.5 5.41602C8.05253 5.41602 8.58244 5.63551 8.97314 6.02621C9.36384 6.41691 9.58333 6.94681 9.58333 7.49935C9.58333 8.05188 9.36384 8.58179 8.97314 8.97249C8.58244 9.36319 8.05253 9.58268 7.5 9.58268Z" stroke="#395734"/>
</svg>
