<svg width="44" height="48" viewBox="0 0 44 48" fill="none" xmlns="http://www.w3.org/2000/svg">
<path d="M22 13.0002V14.0002M22 13.0002C22 9.81759 23.2643 6.76534 25.5147 4.5149C27.7652 2.26447 30.8174 1.00018 34 1.00018H35V14.0002C35 17.448 33.6304 20.7546 31.1924 23.1926C28.7544 25.6305 25.4478 27.0002 22 27.0002M22 13.0002C22 9.81759 20.7357 6.76534 18.4853 4.5149C16.2348 2.26447 13.1826 1.00018 10 1.00018H9V14.0002C9 17.448 10.3696 20.7546 12.8076 23.1926C15.2456 25.6305 18.5522 27.0002 22 27.0002M22 27.0002V46.0002M22 27.0002V45.0002M22 47.0002H13C9.8174 47.0002 6.76516 45.7359 4.51472 43.4855C2.26428 41.235 1 38.1828 1 35.0002H10C13.1826 35.0002 16.2348 36.2645 18.4853 38.5149C20.7357 40.7653 22 43.8176 22 47.0002ZM22 47.0002H31C34.1826 47.0002 37.2348 45.7359 39.4853 43.4855C41.7357 41.235 43 38.1828 43 35.0002H34C30.8174 35.0002 27.7652 36.2645 25.5147 38.5149C23.2643 40.7653 22 43.8176 22 47.0002Z" stroke="#395734" stroke-width="1.5"/>
</svg>
