<svg width="64" height="64" viewBox="0 0 64 64" fill="none" xmlns="http://www.w3.org/2000/svg">
<path d="M32 17.333V18.6663M32 17.333C32 13.0895 33.6857 9.01988 36.6863 6.0193C39.6869 3.01872 43.7565 1.33301 48 1.33301H49.3333V18.6663C49.3333 23.2634 47.5071 27.6722 44.2565 30.9229C41.0059 34.1735 36.5971 35.9997 32 35.9997M32 17.333C32 13.0895 30.3143 9.01988 27.3137 6.0193C24.3131 3.01872 20.2435 1.33301 16 1.33301H14.6667V18.6663C14.6667 23.2634 16.4929 27.6722 19.7435 30.9229C22.9941 34.1735 27.4029 35.9997 32 35.9997M32 35.9997V61.333M32 35.9997V59.9997M32 62.6663H20C15.7565 62.6663 11.6869 60.9806 8.68629 57.98C5.68571 54.9795 4 50.9098 4 46.6663H16C20.2435 46.6663 24.3131 48.352 27.3137 51.3526C30.3143 54.3532 32 58.4229 32 62.6663ZM32 62.6663H44C48.2435 62.6663 52.3131 60.9806 55.3137 57.98C58.3143 54.9795 60 50.9098 60 46.6663H48C43.7565 46.6663 39.6869 48.352 36.6863 51.3526C33.6857 54.3532 32 58.4229 32 62.6663Z" stroke="#395734" stroke-width="2"/>
</svg>
