<svg width="82" height="24" viewBox="0 0 82 24" fill="none" xmlns="http://www.w3.org/2000/svg">
<path fill-rule="evenodd" clip-rule="evenodd" d="M81.8028 0H46.117V24H81.8028V0ZM57.3863 6.60822V17.0534C57.3863 17.0589 57.3864 17.0644 57.3865 17.0699C57.3866 17.0755 57.3868 17.0811 57.3869 17.0867C57.3875 17.1088 57.388 17.1306 57.3863 17.152C57.3813 17.2123 57.3976 17.2481 57.4676 17.2382C57.4843 17.2366 57.501 17.2371 57.5177 17.2376C57.5222 17.2378 57.5267 17.2379 57.5312 17.238C57.535 17.2381 57.5389 17.2382 57.5427 17.2382C57.8381 17.2382 58.1337 17.2383 58.4294 17.2385C59.0211 17.2387 59.6131 17.239 60.2052 17.2382C60.2152 17.2382 60.2247 17.2383 60.2335 17.2383C60.2411 17.2384 60.2482 17.2385 60.2549 17.2386C60.3117 17.2393 60.3394 17.2396 60.3526 17.2261C60.3652 17.2134 60.3646 17.1881 60.3635 17.1389C60.3632 17.1223 60.3627 17.103 60.3627 17.0805V6.623L60.3626 6.61171L60.3622 6.59836C60.3616 6.58194 60.3611 6.56551 60.3627 6.54908C60.369 6.48748 60.3477 6.45545 60.2802 6.46284C60.2669 6.46448 60.2531 6.46394 60.239 6.46339C60.2319 6.46312 60.2248 6.46284 60.2177 6.46284C59.9193 6.46284 59.6209 6.4627 59.3223 6.46257H59.3213C58.7242 6.46229 58.1269 6.46202 57.5302 6.46284C57.5125 6.46284 57.4969 6.46261 57.4833 6.46241C57.4341 6.46168 57.4094 6.46131 57.3971 6.47332C57.3848 6.48545 57.3851 6.51023 57.3859 6.56006C57.3861 6.57405 57.3863 6.59001 57.3863 6.60822ZM72.2108 6.4632H67.7693C66.2905 6.4632 64.8117 6.4632 63.3341 6.46197C63.3287 6.46197 63.3233 6.462 63.3179 6.46205C63.3121 6.4621 63.3063 6.46217 63.3006 6.46224C63.2785 6.46252 63.2566 6.46279 63.2341 6.46197C63.1841 6.4595 63.1666 6.48291 63.1703 6.5285C63.1712 6.54241 63.1709 6.55577 63.1706 6.56931C63.1705 6.57615 63.1703 6.58308 63.1703 6.5901V9.09113L63.1702 9.11706C63.17 9.17075 63.1699 9.19719 63.1832 9.21008C63.1961 9.22259 63.2217 9.22236 63.2721 9.22191C63.2773 9.22187 63.2828 9.22182 63.2886 9.22178C63.2943 9.22175 63.3003 9.22172 63.3066 9.22172H66.0954C66.1864 9.22172 66.2314 9.22172 66.2537 9.24392C66.2755 9.26569 66.2755 9.30881 66.2755 9.39421V17.1055C66.2755 17.1203 66.2753 17.1334 66.2752 17.1451C66.2745 17.1894 66.2742 17.2126 66.2857 17.2246C66.2984 17.2378 66.3253 17.2377 66.3817 17.2374L66.4093 17.2373H69.0856C69.1694 17.2373 69.211 17.2373 69.2316 17.2168C69.2519 17.1966 69.2519 17.1566 69.2519 17.0772V9.36587C69.2519 9.34928 69.2517 9.3346 69.2515 9.32161C69.2508 9.27395 69.2504 9.24882 69.2627 9.23603C69.2761 9.22216 69.3045 9.22237 69.3635 9.22279C69.3748 9.22287 69.3872 9.22295 69.4007 9.22295H72.2396C72.3621 9.22295 72.3621 9.22295 72.3634 9.10345V6.61474C72.3634 6.59765 72.3636 6.58246 72.3637 6.56896C72.3644 6.51475 72.3647 6.48783 72.3513 6.47467C72.338 6.46171 72.3114 6.46208 72.2585 6.4628C72.2445 6.46299 72.2287 6.4632 72.2108 6.4632Z" fill="#91897F"/>
<path d="M24.0103 10.6576C24.5164 9.73723 25.3252 9.29616 26.1101 9.27891C27.7025 9.27521 28.7436 10.1586 29.0274 11.3832C29.1995 12.1212 29.1229 12.8383 28.7549 13.5085C28.3217 14.2957 27.646 14.7541 26.7368 14.8563C25.8577 14.9561 25.0903 14.7109 24.4637 14.0875C24.0618 13.6884 23.8194 13.2017 23.7164 12.6522C23.5858 11.9561 23.6662 11.2822 24.0103 10.6576Z" fill="#91897F"/>
<path fill-rule="evenodd" clip-rule="evenodd" d="M36.3838 0H0.698242V24H36.3838L46.1162 12L36.3838 0ZM16.4761 10.2462C16.5302 10.2895 16.5847 10.3331 16.6399 10.3767C16.6765 10.3547 16.6991 10.3247 16.7204 10.2963C16.7254 10.2897 16.7303 10.2832 16.7353 10.2769C16.9287 10.0502 17.1209 9.82229 17.313 9.59437C17.6985 9.13975 18.0828 8.68512 18.4671 8.22927C18.5437 8.1381 18.5412 8.09621 18.4533 8.02229C18.3842 7.96315 18.3139 7.90525 18.2423 7.84734C17.632 7.35453 16.9614 6.97013 16.2016 6.74714C15.6942 6.59929 15.1755 6.51798 14.6481 6.48225C13.9599 6.43666 13.2779 6.45884 12.6023 6.61285C10.2362 7.15001 8.4705 9.08184 8.26329 11.5582C8.20803 12.226 8.26077 12.8876 8.43408 13.5369C8.82842 15.0067 9.68492 16.1328 11.045 16.8744C11.786 17.2786 12.5885 17.4917 13.4324 17.5582C14.147 17.6149 14.854 17.5718 15.5523 17.4165C16.7328 17.1541 17.7764 16.6243 18.7045 15.8666C18.7786 15.8063 18.8087 15.7459 18.8087 15.6498C18.8057 14.4711 18.8059 13.2917 18.8061 12.1127L18.8062 11.228C18.8062 11.2127 18.8051 11.1972 18.804 11.1816C18.8016 11.1472 18.7992 11.1128 18.8087 11.0814C18.8197 11.045 18.7998 11.024 18.7804 11.0036C18.7644 10.9868 18.7487 10.9704 18.751 10.9459C18.756 10.9052 18.7284 10.8991 18.6957 10.8991H13.7112C13.7016 10.8991 13.6919 10.8994 13.6821 10.8996C13.6625 10.9002 13.6426 10.9007 13.6233 10.8991C13.5731 10.8942 13.5567 10.9188 13.5605 10.9644C13.5622 10.9833 13.5616 11.0028 13.561 11.0221C13.5608 11.0317 13.5605 11.0412 13.5605 11.0506C13.5605 11.3094 13.5604 11.5681 13.5602 11.8268C13.5599 12.3443 13.5597 12.8617 13.5605 13.3792C13.5605 13.4006 13.5601 13.419 13.5598 13.4349C13.5587 13.4822 13.5582 13.5065 13.5703 13.5189C13.5831 13.532 13.61 13.5317 13.6654 13.5311C13.6792 13.5309 13.6948 13.5307 13.7125 13.5307H15.6842C15.7015 13.5307 15.7169 13.5305 15.7306 13.5304C15.7852 13.5297 15.8118 13.5294 15.8245 13.5423C15.8364 13.5545 15.836 13.5785 15.8353 13.6252C15.835 13.6417 15.8347 13.6609 15.8349 13.6835C15.8357 13.796 15.8354 13.9079 15.8351 14.02C15.835 14.0761 15.8349 14.1323 15.8349 14.1886V14.1927C15.8349 14.424 15.8349 14.4258 15.6226 14.5262C15.001 14.8194 14.3442 14.9032 13.666 14.8194C12.9125 14.727 12.3097 14.3759 11.8676 13.7685C11.58 13.373 11.423 12.927 11.364 12.4465C11.2899 11.833 11.3653 11.2428 11.6478 10.6859C11.9882 10.017 12.5031 9.53646 13.2428 9.31593C13.7614 9.16069 14.2864 9.20135 14.8063 9.31346C15.2773 9.41449 15.6879 9.64118 16.0659 9.92578C16.2045 10.0291 16.3393 10.1368 16.4761 10.2462ZM30.4252 8.01115C29.2635 6.96885 27.8796 6.47234 26.4492 6.46125C25.7886 6.46248 25.295 6.51546 24.7713 6.64975C23.2518 7.04031 22.0625 7.87809 21.2725 9.21608C20.4613 10.5886 20.2967 12.0608 20.7501 13.575C21.2575 15.2678 22.3388 16.4998 24.0116 17.1861C25.2963 17.7122 26.6275 17.7824 27.97 17.435C29.5298 17.0321 30.7254 16.1413 31.509 14.7516C32.1696 13.5799 32.3467 12.3233 32.1005 11.0111C31.8795 9.83209 31.3269 8.82183 30.4252 8.01115Z" fill="#91897F"/>
</svg>
