<svg width="32" height="32" viewBox="0 0 32 32" fill="none" xmlns="http://www.w3.org/2000/svg">
<path d="M15.9972 11.5537C13.5489 11.5537 11.5509 13.5518 11.5509 16.0001C11.5509 18.4484 13.5489 20.4464 15.9972 20.4464C18.4456 20.4464 20.4436 18.4484 20.4436 16.0001C20.4436 13.5518 18.4456 11.5537 15.9972 11.5537ZM29.3329 16.0001C29.3329 14.1588 29.3496 12.3343 29.2462 10.4964C29.1428 8.36159 28.6558 6.46697 27.0947 4.90592C25.5303 3.34153 23.6391 2.85787 21.5043 2.75447C19.663 2.65106 17.8385 2.66774 16.0006 2.66774C14.1593 2.66774 12.3348 2.65106 10.4969 2.75447C8.36208 2.85787 6.46746 3.34486 4.90641 4.90592C3.34202 6.47031 2.85836 8.36159 2.75495 10.4964C2.65155 12.3376 2.66823 14.1622 2.66823 16.0001C2.66823 17.838 2.65155 19.6659 2.75495 21.5038C2.85836 23.6386 3.34535 25.5332 4.90641 27.0942C6.4708 28.6586 8.36208 29.1423 10.4969 29.2457C12.3381 29.3491 14.1627 29.3324 16.0006 29.3324C17.8418 29.3324 19.6664 29.3491 21.5043 29.2457C23.6391 29.1423 25.5337 28.6553 27.0947 27.0942C28.6591 25.5299 29.1428 23.6386 29.2462 21.5038C29.3529 19.6659 29.3329 17.8413 29.3329 16.0001ZM15.9972 22.8414C12.2113 22.8414 9.15594 19.786 9.15594 16.0001C9.15594 12.2142 12.2113 9.15879 15.9972 9.15879C19.7831 9.15879 22.8385 12.2142 22.8385 16.0001C22.8385 19.786 19.7831 22.8414 15.9972 22.8414ZM23.1187 10.4763C22.2348 10.4763 21.521 9.76253 21.521 8.8786C21.521 7.99467 22.2348 7.28086 23.1187 7.28086C24.0026 7.28086 24.7165 7.99467 24.7165 8.8786C24.7167 9.0885 24.6756 9.29638 24.5954 9.49035C24.5152 9.68431 24.3975 9.86055 24.2491 10.009C24.1007 10.1574 23.9244 10.2751 23.7305 10.3553C23.5365 10.4355 23.3286 10.4766 23.1187 10.4763Z" fill="currentColor"/>
</svg>
