<svg width="28" height="28" viewBox="0 0 28 28" fill="none" xmlns="http://www.w3.org/2000/svg">
<path d="M13.997 9.55301C11.5487 9.55301 9.55065 11.551 9.55065 13.9993C9.55065 16.4477 11.5487 18.4457 13.997 18.4457C16.4453 18.4457 18.4433 16.4477 18.4433 13.9993C18.4433 11.551 16.4453 9.55301 13.997 9.55301ZM27.3327 13.9993C27.3327 12.1581 27.3493 10.3335 27.2459 8.49563C27.1425 6.36085 26.6555 4.46624 25.0945 2.90519C23.5301 1.3408 21.6388 0.857136 19.504 0.753733C17.6628 0.65033 15.8382 0.667008 14.0003 0.667008C12.1591 0.667008 10.3345 0.65033 8.49661 0.753733C6.36183 0.857136 4.46722 1.34413 2.90616 2.90519C1.34177 4.46958 0.858113 6.36085 0.75471 8.49563C0.651306 10.3369 0.667984 12.1614 0.667984 13.9993C0.667984 15.8373 0.651306 17.6652 0.75471 19.5031C0.858113 21.6378 1.34511 23.5325 2.90616 25.0935C4.47055 26.6579 6.36183 27.1416 8.49661 27.245C10.3379 27.3484 12.1624 27.3317 14.0003 27.3317C15.8416 27.3317 17.6661 27.3484 19.504 27.245C21.6388 27.1416 23.5334 26.6546 25.0945 25.0935C26.6589 23.5291 27.1425 21.6378 27.2459 19.5031C27.3527 17.6652 27.3327 15.8406 27.3327 13.9993ZM13.997 20.8406C10.2111 20.8406 7.1557 17.7852 7.1557 13.9993C7.1557 10.2135 10.2111 7.15806 13.997 7.15806C17.7829 7.15806 20.8383 10.2135 20.8383 13.9993C20.8383 17.7852 17.7829 20.8406 13.997 20.8406ZM21.1185 8.47562C20.2345 8.47562 19.5207 7.7618 19.5207 6.87787C19.5207 5.99394 20.2345 5.28012 21.1185 5.28012C22.0024 5.28012 22.7162 5.99394 22.7162 6.87787C22.7165 7.08776 22.6753 7.29565 22.5951 7.48961C22.5149 7.68358 22.3972 7.85982 22.2488 8.00823C22.1004 8.15665 21.9242 8.27433 21.7302 8.35453C21.5362 8.43473 21.3284 8.47588 21.1185 8.47562Z" fill="currentColor"/>
</svg>
