<svg xmlns="http://www.w3.org/2000/svg" width="64" height="64" viewBox="0 0 64 64" fill="none">
<path d="M17 27.6667V15.6667C17 11.7768 18.5452 8.0463 21.2958 5.29577C24.0463 2.54523 27.7768 1 31.6667 1C35.5565 1 39.287 2.54523 42.0376 5.29577C44.7881 8.0463 46.3333 11.7768 46.3333 15.6667V27.6667M31.6667 39.6667V50.3333M54.3333 62.3333H9V61.6667L9.2 60.7947C11.5983 50.4014 11.5983 39.5985 9.2 29.2053L9 28.3333V27.6667H54.3333V28.3333L54.1333 29.2053C51.7348 39.5985 51.7348 50.4015 54.1333 60.7947L54.3333 61.6667V62.3333Z" stroke="#395734" stroke-width="2"/>
</svg>
