<svg width="36" height="48" viewBox="0 0 36 48" fill="none" xmlns="http://www.w3.org/2000/svg">
<path d="M6.75 20.75V11.75C6.75 8.83262 7.90892 6.03472 9.97182 3.97183C12.0347 1.90893 14.8326 0.75 17.75 0.75C20.6674 0.75 23.4653 1.90893 25.5282 3.97183C27.5911 6.03472 28.75 8.83262 28.75 11.75V20.75M17.75 29.75V37.75M34.75 46.75H0.75V46.25L0.9 45.596C2.69875 37.8011 2.69875 29.6989 0.9 21.904L0.75 21.25V20.75H34.75V21.25L34.6 21.904C32.8011 29.6989 32.8011 37.8011 34.6 45.596L34.75 46.25V46.75Z" stroke="#395734" stroke-width="1.5"/>
</svg>
