<svg width="64" height="64" viewBox="0 0 64 64" fill="none" xmlns="http://www.w3.org/2000/svg">
<g clip-path="url(#clip0_505_3538)">
<path d="M13.333 35.9997H50.6663M31.9997 35.9997V63.9997M17.333 29.333V17.333H14.2077C12.4318 17.333 10.7063 17.924 9.30329 19.0127C7.90025 20.1014 6.89936 21.6261 6.45834 23.3463L1.33301 43.333V43.9997H19.9997V47.9997C19.9997 51.9997 19.9997 54.6663 21.9997 58.6663C21.9997 58.6663 23.9997 62.6663 26.6663 62.6663M46.6663 29.333V17.333H49.7917C51.5676 17.333 53.293 17.924 54.6961 19.0127C56.0991 20.1014 57.1 21.6261 57.541 23.3463L62.6663 43.333V43.9997H43.9997V47.9997C43.9997 51.9997 43.9997 54.6663 41.9997 58.6663C41.9997 58.6663 39.9997 62.6663 37.333 62.6663M16.933 11.9997C16.933 11.9997 12.6663 9.33301 12.6663 5.99967C12.6663 4.76341 13.1574 3.57778 14.0316 2.70361C14.9058 1.82944 16.0914 1.33834 17.3277 1.33834C18.5639 1.33834 19.7496 1.82944 20.6237 2.70361C21.4979 3.57778 21.989 4.76341 21.989 5.99967C21.989 9.33301 17.733 11.9997 17.733 11.9997H16.933ZM47.0663 11.9997C47.0663 11.9997 51.333 9.33301 51.333 5.99967C51.333 4.762 50.8413 3.57501 49.9662 2.69984C49.091 1.82467 47.904 1.33301 46.6663 1.33301C44.0903 1.33301 42.0103 3.42367 42.0103 5.99967C42.0103 9.33301 46.2663 11.9997 46.2663 11.9997H47.0663Z" stroke="#395734" stroke-width="2"/>
</g>
<defs>
<clipPath id="clip0_505_3538">
<rect width="64" height="64" fill="white"/>
</clipPath>
</defs>
</svg>
