<svg width="123" height="20" viewBox="0 0 123 20" fill="none" xmlns="http://www.w3.org/2000/svg">
<path fill-rule="evenodd" clip-rule="evenodd" d="M5.46972 0.832031C0.636149 0.832031 -1.78632 6.68263 1.62905 10.1078L7.93982 16.4366H0.48238V19.1654H12.9128C17.7484 19.1654 20.1699 13.3105 16.7504 9.88662L10.4328 3.56081H17.9109V0.832031H5.46972ZM10.4315 3.56081H5.46972C3.06285 3.56081 1.85659 6.4741 3.55727 8.17963L9.87281 14.5132L7.94938 16.4366H12.9128C15.3206 16.4366 16.5264 13.5212 14.8237 11.8163L8.50542 5.48979L10.4315 3.56081Z" fill="#91897F"/>
<path d="M35.1135 4.63322C35.0522 4.63164 31.6656 4.63086 31.6036 4.63086C30.9682 4.63086 30.3984 4.69141 29.8941 4.81252C29.3898 4.93363 28.9562 5.11529 28.5931 5.35751C28.23 5.58964 27.9527 5.88232 27.7611 6.23555C27.5694 6.58878 27.4736 6.99248 27.4736 7.44664C27.4736 7.92098 27.5644 8.32468 27.7459 8.65773C27.9376 8.98068 28.1897 9.25318 28.5023 9.47521C28.8251 9.68715 29.1831 9.86881 29.5764 10.0202C29.9798 10.1716 30.3933 10.3028 30.8169 10.4138C31.2405 10.5248 31.6489 10.6358 32.0423 10.7469C32.4457 10.8579 32.8037 10.984 33.1164 11.1253C33.4391 11.2666 33.6912 11.4432 33.8728 11.6552C34.0644 11.8671 34.1602 12.1346 34.1602 12.4575C34.1602 12.6695 34.1148 12.8562 34.024 13.0176C33.9333 13.1791 33.8072 13.3204 33.6458 13.4415C33.4845 13.5525 33.2928 13.6484 33.071 13.7292C32.8592 13.7998 32.6222 13.8553 32.36 13.8957C32.0977 13.926 31.8254 13.9411 31.543 13.9411C31.5037 13.9411 27.813 13.9407 27.7742 13.9399V15.3784C27.8132 15.379 31.5039 15.3793 31.543 15.3793C32.3801 15.3793 33.1214 15.2733 33.7669 15.0614C34.4224 14.8494 34.9368 14.5113 35.3099 14.0471C35.6831 13.5727 35.8696 12.9621 35.8696 12.2153C35.8696 11.741 35.7738 11.3423 35.5822 11.0193C35.3906 10.6863 35.1334 10.4088 34.8107 10.1867C34.498 9.96469 34.14 9.77798 33.7366 9.6266C33.3433 9.47521 32.9348 9.34401 32.5112 9.23299C32.0977 9.11188 31.6893 9.00087 31.2859 8.89994C30.8925 8.78893 30.5345 8.66782 30.2118 8.53662C29.8991 8.40542 29.647 8.24898 29.4554 8.06732C29.2638 7.87557 29.168 7.63335 29.168 7.34067C29.168 7.07827 29.2587 6.85623 29.4403 6.67457C29.6319 6.48281 29.9092 6.33647 30.2723 6.23555C30.6354 6.12453 31.0842 6.06903 31.6187 6.06903C31.6762 6.06903 35.0578 6.07 35.1135 6.07194V4.63322Z" fill="#91897F"/>
<path fill-rule="evenodd" clip-rule="evenodd" d="M43.221 15.3793C42.152 15.3793 41.2241 15.1825 40.4375 14.7889C39.6609 14.3953 39.0608 13.7998 38.6372 13.0025C38.2237 12.2052 38.017 11.2061 38.017 10.0051C38.017 8.79397 38.2237 7.79483 38.6372 7.00762C39.0608 6.21032 39.6609 5.61487 40.4375 5.22126C41.2241 4.82766 42.152 4.63086 43.221 4.63086C44.3102 4.63086 45.2431 4.82766 46.0197 5.22126C46.7962 5.61487 47.3913 6.21032 47.8048 7.00762C48.2284 7.79483 48.4401 8.79397 48.4401 10.0051C48.4401 11.2061 48.2284 12.2052 47.8048 13.0025C47.3913 13.7998 46.7962 14.3953 46.0197 14.7889C45.2431 15.1825 44.3102 15.3793 43.221 15.3793ZM43.221 13.9411C43.7757 13.9411 44.2648 13.8654 44.6884 13.714C45.1221 13.5626 45.4852 13.3305 45.7776 13.0176C46.0802 12.7048 46.3071 12.3112 46.4584 11.8368C46.6197 11.3625 46.7004 10.8125 46.7004 10.1867V9.85367C46.7004 9.20776 46.6197 8.64763 46.4584 8.17329C46.3071 7.69895 46.0802 7.30534 45.7776 6.99248C45.4852 6.67962 45.1221 6.44749 44.6884 6.29611C44.2648 6.14472 43.7757 6.06903 43.221 6.06903C42.6764 6.06903 42.1873 6.14472 41.7536 6.29611C41.33 6.44749 40.9669 6.67962 40.6644 6.99248C40.3719 7.30534 40.15 7.69895 39.9988 8.17329C39.8475 8.64763 39.7718 9.20776 39.7718 9.85367V10.1867C39.7718 10.8125 39.8475 11.3625 39.9988 11.8368C40.15 12.3112 40.3719 12.7048 40.6644 13.0176C40.9669 13.3305 41.33 13.5626 41.7536 13.714C42.1873 13.8654 42.6764 13.9411 43.221 13.9411Z" fill="#91897F"/>
<path d="M51.0744 6.3274V15.1976H52.7688V10.7771H57.9425V9.33892H52.7688V6.87175C52.7688 6.53708 53.0399 6.26578 53.3743 6.26578H58.4871V4.81248H52.5883C51.7522 4.81248 51.0744 5.49073 51.0744 6.3274Z" fill="#91897F"/>
<path d="M63.5451 15.1976V6.26578H60.111V4.81248H68.7037V6.26578H65.2394V15.1976H63.5451Z" fill="#91897F"/>
<path fill-rule="evenodd" clip-rule="evenodd" d="M70.9474 4.81248V15.1976H72.6417V11.1858H76.2421L78.2088 15.1976H80.0544L77.8911 10.8982C78.4659 10.656 78.9097 10.2775 79.2223 9.7628C79.535 9.24809 79.6913 8.64254 79.6913 7.94617C79.6913 7.32044 79.5703 6.77545 79.3282 6.3112C79.0862 5.83686 78.7231 5.46848 78.239 5.20608C77.7549 4.94368 77.1448 4.81248 76.4085 4.81248H70.9474ZM76.2724 9.7628H72.6417V6.26578H76.2724C76.6455 6.26578 76.9582 6.33138 77.2103 6.46258C77.4625 6.59379 77.6541 6.78554 77.7852 7.03785C77.9163 7.28007 77.9818 7.57779 77.9818 7.93103C77.9818 8.5063 77.8306 8.95541 77.528 9.27836C77.2355 9.60132 76.817 9.7628 76.2724 9.7628Z" fill="#91897F"/>
<path d="M85.2003 15.1976V10.9285L81.1612 4.81248H83.0975L86.0626 9.41461H86.1383L89.0731 4.81248H90.9338L86.8946 10.9285V15.1976H85.2003Z" fill="#91897F"/>
<path d="M92.2352 14.3649V15.1976H100.813V13.7443H94.7162L100.677 5.6451V4.81248H92.6285V6.26578H98.1653L92.2352 14.3649Z" fill="#91897F"/>
<path d="M104.789 15.1976C103.953 15.1976 103.275 14.5193 103.275 13.6826V6.3274C103.275 5.49073 103.953 4.81248 104.789 4.81248H111.323V6.26578H105.575C105.24 6.26578 104.969 6.53708 104.969 6.87175V9.15726H110.657V10.6106H104.969V13.1383C104.969 13.4729 105.24 13.7443 105.575 13.7443H111.414V15.1976H104.789Z" fill="#91897F"/>
<path d="M114.149 15.1976V4.81248H115.783L121.093 12.185H121.169V4.81248H122.803V15.1976H121.229L115.859 7.71909H115.783V15.1976H114.149Z" fill="#91897F"/>
</svg>
