<svg width="32" height="32" viewBox="0 0 32 32" fill="none" xmlns="http://www.w3.org/2000/svg">
<path d="M16.0006 2.66675C8.64057 2.66675 2.66724 8.64008 2.66724 16.0001C2.66724 23.3601 8.64057 29.3334 16.0006 29.3334C23.3606 29.3334 29.3339 23.3601 29.3339 16.0001C29.3339 8.64008 23.3606 2.66675 16.0006 2.66675ZM22.1872 11.7334C21.9872 13.8401 21.1206 18.9601 20.6806 21.3201C20.4939 22.3201 20.1206 22.6534 19.7739 22.6934C19.0006 22.7601 18.4139 22.1867 17.6672 21.6934C16.4939 20.9201 15.8272 20.4401 14.6939 19.6934C13.3739 18.8267 14.2272 18.3467 14.9872 17.5734C15.1872 17.3734 18.6006 14.2667 18.6672 13.9867C18.6765 13.9443 18.6753 13.9003 18.6636 13.8585C18.652 13.8167 18.6304 13.7783 18.6006 13.7467C18.5206 13.6801 18.4139 13.7067 18.3206 13.7201C18.2006 13.7467 16.3339 14.9867 12.6939 17.4401C12.1606 17.8001 11.6806 17.9867 11.2539 17.9734C10.7739 17.9601 9.86724 17.7067 9.18724 17.4801C8.34724 17.2134 7.6939 17.0667 7.74724 16.6001C7.7739 16.3601 8.10724 16.1201 8.7339 15.8667C12.6272 14.1734 15.2139 13.0534 16.5072 12.5201C20.2139 10.9734 20.9739 10.7067 21.4806 10.7067C21.5872 10.7067 21.8406 10.7334 22.0006 10.8667C22.1339 10.9734 22.1739 11.1201 22.1872 11.2267C22.1739 11.3067 22.2006 11.5467 22.1872 11.7334Z" fill="currentColor"/>
</svg>
