<svg width="28" height="28" viewBox="0 0 28 28" fill="none" xmlns="http://www.w3.org/2000/svg">
<path d="M14.0003 0.666016C6.64033 0.666016 0.666992 6.63935 0.666992 13.9993C0.666992 21.3593 6.64033 27.3327 14.0003 27.3327C21.3603 27.3327 27.3337 21.3593 27.3337 13.9993C27.3337 6.63935 21.3603 0.666016 14.0003 0.666016ZM20.187 9.73268C19.987 11.8393 19.1203 16.9593 18.6803 19.3193C18.4937 20.3193 18.1203 20.6527 17.7737 20.6927C17.0003 20.7593 16.4137 20.186 15.667 19.6927C14.4937 18.9193 13.827 18.4393 12.6937 17.6927C11.3737 16.826 12.227 16.346 12.987 15.5727C13.187 15.3727 16.6003 12.266 16.667 11.986C16.6763 11.9436 16.675 11.8996 16.6634 11.8578C16.6518 11.8159 16.6301 11.7776 16.6003 11.746C16.5203 11.6793 16.4137 11.706 16.3203 11.7193C16.2003 11.746 14.3337 12.986 10.6937 15.4393C10.1603 15.7993 9.68032 15.986 9.25366 15.9727C8.77366 15.9593 7.86699 15.706 7.18699 15.4793C6.34699 15.2127 5.69366 15.066 5.74699 14.5993C5.77366 14.3593 6.10699 14.1193 6.73366 13.866C10.627 12.1727 13.2137 11.0527 14.507 10.5193C18.2137 8.97268 18.9737 8.70601 19.4803 8.70601C19.587 8.70601 19.8403 8.73268 20.0003 8.86601C20.1337 8.97268 20.1737 9.11935 20.187 9.22602C20.1737 9.30602 20.2003 9.54602 20.187 9.73268Z" fill="currentColor"/>
</svg>
